<svg width="44" height="44" viewBox="0 0 44 44" fill="none" xmlns="http://www.w3.org/2000/svg">
<rect width="44" height="44" rx="8" fill="black"/>
<path d="M13.8892 31.9697C9.50934 31.9697 6.74176 29.875 6.52594 26.625L6.51324 26.4219H10.2076L10.2203 26.5488C10.3599 27.9199 11.8453 28.8467 13.9908 28.8467C16.0347 28.8467 17.4439 27.8691 17.4439 26.46V26.4473C17.4439 25.2412 16.5425 24.5684 14.2701 24.0986L12.3404 23.7051C8.5318 22.9307 6.8941 21.1533 6.8941 18.373V18.3604C6.8941 14.958 9.81402 12.7109 13.8765 12.7109C18.1548 12.7109 20.6685 14.9707 20.9097 18.0303L20.9224 18.1953H17.317L17.2916 18.043C17.0757 16.7354 15.8062 15.8213 13.8765 15.8213C11.9849 15.834 10.7281 16.6973 10.7281 18.0684V18.0811C10.7281 19.2744 11.6168 19.9854 13.775 20.4297L15.7173 20.8232C19.5894 21.623 21.2779 23.1719 21.2779 26.0283V26.041C21.2779 29.6719 18.4595 31.9697 13.8892 31.9697ZM24.4106 31.5V17.5225H28.1176V19.6807H28.3461C28.9809 18.1699 30.3647 17.2178 32.3579 17.2178C35.4682 17.2178 37.144 19.1221 37.144 22.4609V31.5H33.437V23.2988C33.437 21.3311 32.6245 20.29 30.8725 20.29C29.1586 20.29 28.1176 21.5215 28.1176 23.4131V31.5H24.4106Z" fill="white"/>
</svg>
